Coordinates
version=1
nRows=12
nColumns=42
inDegrees=yes

Units are S.I. units (second, meters, Newtons, ...)
If the header above contains a line with 'inDegrees', this indicates whether rotational values are in degrees (yes) or radians (no).

endheader
time	pelvis_tilt	pelvis_list	pelvis_rotation	pelvis_tx	pelvis_ty	pelvis_tz	hip_flexion_r	hip_adduction_r	hip_rotation_r	knee_angle_r	knee_adduction_r	knee_angle_r_beta	ankle_angle_r	subtalar_angle_r	mtp_angle_r	hip_flexion_l	hip_adduction_l	hip_rotation_l	knee_angle_l	knee_adduction_l	knee_angle_l_beta	ankle_angle_l	subtalar_angle_l	mtp_angle_l	lumbar_extension	lumbar_bending	lumbar_rotation	arm_flex_r	arm_add_r	arm_rot_r	elbow_flex_r	pro_sup_r	wrist_flex_r	wrist_dev_r	arm_flex_l	arm_add_l	arm_rot_l	elbow_flex_l	pro_sup_l	wrist_flex_l	wrist_dev_l
      2.41000000	      2.15635090	      0.82740011	      2.81679260	      0.28730574	      0.97089989	      0.26808165	     21.62087556	     -6.34136211	    -11.45197482	     25.11588990	      4.11293624	      0.43835497	      8.27954220	      8.33689993	     -7.50326320	     -6.95549261	      2.52047132	    -13.24483094	      8.53254870	     -1.49858209	      0.14892107	     16.73783650	     29.34831044	     -7.50326320	    -11.38509187	     -0.42679105	     -6.50031436	    -10.63113824	     -9.93939729	      7.34911658	     28.18588645	     90.00000001	      0.00000000	      0.00000000	     13.26270676	    -20.56428212	     26.05839233	     42.78871464	     90.00000001	      0.00000000	      0.00000000
      2.42000000	      2.18653329	      0.91509114	      2.96042644	      0.29741046	      0.96925646	      0.26777483	     21.58881204	     -6.23173762	    -12.54278580	     22.35244672	      4.03251431	      0.39012379	      7.95974356	      9.09193938	     -7.50319417	     -7.62938613	      2.58358787	    -13.11151104	      8.60994963	     -1.51139605	      0.15027197	     17.39832054	     29.38525256	     -7.50319417	    -11.36130521	     -0.42476122	     -6.64646367	    -10.88976023	     -9.73766654	      7.32211192	     27.99106053	     90.00000001	      0.00000000	      0.00000000	     13.51413070	    -20.68583345	     25.98153341	     43.42803133	     90.00000001	      0.00000000	      0.00000000
      2.43000000	      2.22225006	      0.96172967	      3.12224721	      0.30757079	      0.96755297	      0.26752513	     21.52524894	     -6.08238859	    -13.80115757	     19.74877494	      3.92148534	      0.34468115	      7.69339113	     10.18287983	     -7.50310802	     -8.28845138	      2.58685237	    -13.01770502	      8.72905247	     -1.53745564	      0.15235071	     18.07130932	     29.45235027	     -7.50310802	    -11.35818281	     -0.37157559	     -6.83769190	    -11.03239358	     -9.56773961	      7.26969416	     27.64605018	     90.00000001	      0.00000000	      0.00000000	     13.62200247	    -20.90474717	     25.87398667	     44.49501029	     90.00000001	      0.00000000	      0.00000000
      2.44000000	      2.10116284	      1.11744829	      3.34958721	      0.31764567	      0.96571076	      0.26715279	     21.60314077	     -6.12933780	    -14.93005349	     17.36248124	      3.96708852	      0.30303246	      7.42348916	     11.08389852	     -7.50305972	     -8.71140179	      2.72961125	    -12.74892924	      8.96616236	     -1.63131863	      0.15648905	     18.58740168	     29.48134917	     -7.50305972	    -11.20445242	     -0.42676772	     -7.10006479	    -11.21391454	     -9.41181106	      7.24825323	     27.47474605	     90.00000001	      0.00000000	      0.00000000	     13.77156921	    -21.05143600	     25.77042729	     45.20045435	     90.00000001	      0.00000000	      0.00000000
      2.45000000	      2.10030203	      1.15064309	      3.51750167	      0.32799125	      0.96391772	      0.26695328	     21.62981624	     -6.02638423	    -16.69976093	     15.40313127	      3.79503977	      0.26883536	      7.40592979	     13.43719076	     -7.50288878	     -9.30333990	      2.67735410	    -12.80071108	      9.14821329	     -1.64034271	      0.15966644	     19.23972025	     29.68562360	     -7.50288878	    -11.16079002	     -0.33750694	     -7.41422039	    -11.17116210	     -9.17092040	      6.98610685	     26.87452663	     90.00000001	      0.00000000	      0.00000000	     13.38324378	    -21.55944853	     25.61394219	     47.13512218	     90.00000001	      0.00000000	      0.00000000
      2.46000000	      2.02059941	      1.20138672	      3.71531739	      0.33829257	      0.96211139	      0.26669447	     21.67059042	     -5.96355927	    -18.03786321	     13.61347221	      3.79901836	      0.23759991	      7.23555791	     15.09329889	     -7.50273485	     -9.77755424	      2.65476715	    -12.67405023	      9.38862638	     -1.67220881	      0.16386244	     19.77277280	     29.76949315	     -7.50273485	    -11.04589083	     -0.26872973	     -7.60668485	    -11.30092705	     -8.98619477	      6.70337223	     26.64449914	     90.00000001	      0.00000000	      0.00000000	     13.33894470	    -21.71927191	     25.50548339	     48.07685062	     90.00000001	      0.00000000	      0.00000000
      2.47000000	      1.91095024	      1.24323110	      3.90757363	      0.34866404	      0.96035583	      0.26649025	     21.70039051	     -5.88066376	    -19.05748824	     12.06319380	      3.86351266	      0.21054245	      6.99752860	     16.33991059	     -7.50263193	    -10.23021958	      2.60089481	    -12.51844692	      9.63008641	     -1.66290405	      0.16807672	     20.24591203	     29.81300610	     -7.50263193	    -10.90251086	     -0.18348380	     -7.81028413	    -11.44518385	     -8.84247895	      6.49448812	     26.44515816	     90.00000001	      0.00000000	      0.00000000	     13.22477994	    -21.88856913	     25.36755544	     48.98017007	     90.00000001	      0.00000000	      0.00000000
      2.48000000	      1.73171351	      1.28981190	      4.13608721	      0.35910801	      0.95861231	      0.26620558	     21.75517367	     -5.82482182	    -19.75773280	     10.77559377	      3.98802626	      0.18806959	      6.75926062	     17.12065620	     -7.50258771	    -10.60836416	      2.58004561	    -12.26985990	      9.86578067	     -1.72826101	      0.17219036	     20.62631151	     29.85038693	     -7.50258771	    -10.68078159	     -0.08421013	     -8.02571602	    -11.56783117	     -8.77413362	      6.39112489	     26.35954851	     90.00000001	      0.00000000	      0.00000000	     13.12865262	    -21.96642781	     25.27698185	     49.58690488	     90.00000001	      0.00000000	      0.00000000
      2.49000000	      1.63829404	      1.28925737	      4.33628363	      0.36977592	      0.95697370	      0.26597224	     21.82214341	     -5.75907636	    -20.78549376	     10.09046687	      4.00810388	      0.17611187	      6.71770498	     18.53192347	     -7.50246634	    -11.06083086	      2.45537849	    -12.27245569	     10.15085607	     -1.75603345	      0.17716586	     20.95325743	     30.03473647	     -7.50246634	    -10.54139592	      0.07716020	     -8.26533919	    -11.59687192	     -8.66115129	      5.99926705	     26.08506016	     90.00000001	      0.00000000	      0.00000000	     12.65790511	    -22.23912063	     25.02102777	     51.08727594	     90.00000001	      0.00000000	      0.00000000
      2.50000000	      1.44554925	      1.38562753	      4.49436317	      0.38051282	      0.95537702	      0.26568041	     21.96804752	     -5.78142686	    -21.11307395	      9.70206562	      4.09261194	      0.16933299	      6.68708672	     18.61077811	     -7.50245362	    -11.45181982	      2.48052306	    -12.18546618	     10.35625433	     -1.80520602	      0.18075074	     21.02236508	     30.00467315	     -7.50245362	    -10.29026040	      0.13606754	     -8.32147598	    -11.81159157	     -8.64805432	      5.96842843	     26.02852254	     90.00000001	      0.00000000	      0.00000000	     12.59502188	    -22.16161497	     25.01471367	     51.26174882	     90.00000001	      0.00000000	      0.00000000
      2.51000000	      1.38886750	      1.23290382	      4.81357022	      0.39149234	      0.95402525	      0.26555253	     21.85823888	     -5.52276694	    -21.67477533	      9.41949212	      3.99581659	      0.16440115	      6.40853367	     19.73704695	     -7.50233800	    -11.89147800	      2.08406333	    -12.08758460	     10.76904824	     -1.75410031	      0.18795535	     21.37674305	     30.35949646	     -7.50233800	    -10.17994635	      0.48121131	     -8.69445947	    -11.78052958	     -8.53977484	      5.51719360	     25.81425331	     90.00000001	      0.00000000	      0.00000000	     11.90233457	    -22.50002605	     24.70630964	     52.87477754	     90.00000001	      0.00000000	      0.00000000
      2.52000000	      1.24476303	      1.23123713	      5.01131081	      0.40258856	      0.95275556	      0.26535888	     21.87682043	     -5.43263436	    -21.63844080	      9.52568553	      3.96208831	      0.16625458	      6.27647010	     19.75036887	     -7.50232387	    -12.29230657	      1.95864216	    -11.90507963	     11.08387959	     -1.79810116	      0.19345019	     21.36084466	     30.32041162	     -7.50232387	     -9.95323817	      0.65779291	     -8.76173919	    -11.96426132	     -8.56501588	      5.47402052	     25.78113021	     90.00000001	      0.00000000	      0.00000000	     11.68865661	    -22.39997213	     24.73063520	     53.00498509	     90.00000001	      0.00000000	      0.00000000
